<svg xmlns="http://www.w3.org/2000/svg" xmlns:xlink="http://www.w3.org/1999/xlink" version="1.1" width="1000" height="1000" viewBox="0 0 1000 1000" xml:space="preserve">
<desc>Created with Fabric.js 3.5.0</desc>
<defs>
</defs>
<rect x="0" y="0" width="100%" height="100%" fill="#000000"/>
<g transform="matrix(1.583 0 0 1.583 500.0001 629.0541)" id="297782">
<path style="stroke: none; stroke-width: 1; stroke-dasharray: none; stroke-linecap: butt; stroke-dashoffset: 0; stroke-linejoin: miter; stroke-miterlimit: 4; is-custom-font: none; font-file-url: none; fill: rgb(255,255,255); fill-rule: nonzero; opacity: 1;" vector-effect="non-scaling-stroke" transform=" translate(-223.9978, -256.0176)" d="M 429.6 92.1 c 4.9 -11.9 2.1 -25.6 -7 -34.7 s -22.8 -11.9 -34.7 -7 l -352 144 c -14.2 5.8 -22.2 20.8 -19.3 35.8 s 16.1 25.8 31.4 25.8 l 176 0 l 0 176 c 0 15.3 10.8 28.4 25.8 31.4 s 30 -5.1 35.8 -19.3 l 144 -352 z" stroke-linecap="round"/>
</g>
<g transform="matrix(0.8827 0 0 0.8827 527.6339 267.0631)" id="804286">
<path style="stroke: none; stroke-width: 1; stroke-dasharray: none; stroke-linecap: butt; stroke-dashoffset: 0; stroke-linejoin: miter; stroke-miterlimit: 4; is-custom-font: none; font-file-url: none; fill: rgb(255,0,0); fill-rule: nonzero; opacity: 1;" vector-effect="non-scaling-stroke" transform=" translate(-192, -255.3375)" d="M 215.7 499.2 C 267 435 384 279.4 384 192 C 384 86 298 0 192 0 S 0 86 0 192 c 0 87.4 117 243 168.3 307.2 c 12.3 15.3 35.1 15.3 47.4 0 z M 192 128 a 64 64 0 1 1 0 128 a 64 64 0 1 1 0 -128 z" stroke-linecap="round"/>
</g>
</svg>